
<svg width="58" height="121" viewBox="0 0 58 121" fill="none" xmlns="http://www.w3.org/2000/svg">
<path d="M48.0243 49.6344C48.0243 49.6344 54.6388 63.481 51.6252 70.1022C48.6117 76.7233 43.3022 79.1831 37.023 78.3291C21.1158 76.1668 1.53204 60.6869 2.02561 55.6928C2.69177 48.954 31.9793 56.6778 31.9793 56.6778L34.5869 49.7019L48.0243 49.6344Z" fill="#C5DCDD" stroke="black" stroke-width="0.496673" stroke-linecap="round" stroke-linejoin="round"/>
<path d="M2.21249 54.8993C1.32841 56.0499 -5.12833 72.0533 33.8462 83.6968L35.3095 80.2968C35.3095 80.2968 9.19633 45.8066 2.21249 54.8993Z" fill="#C5DCDD" stroke="black" stroke-width="0.496673" stroke-linecap="round" stroke-linejoin="round"/>
<path d="M35.363 80.2968C35.363 80.2968 22.288 63.0297 12.1677 56.1504" stroke="#4B556A" stroke-width="0.496673" stroke-miterlimit="10"/>
<path d="M33.8463 83.6968C35.6467 84.1034 43.2955 87.4461 44.9885 87.0003C46.6815 86.5545 43.9952 80.2034 42.9397 79.9365C41.8843 79.6697 36.6692 80.413 35.3115 80.2968C33.9537 80.1806 33.8463 83.6968 33.8463 83.6968Z" fill="#C48270" stroke="#0F0F0F" stroke-width="0.496673" stroke-linecap="round" stroke-linejoin="round"/>
<path d="M43.1042 69.4656C36.3172 87.556 16.9848 108.189 16.9848 108.189C16.9848 108.189 15.524 106.591 13.69 106.492C13.69 106.492 30.9891 57.8567 40.7587 55.4974C48.6576 53.5862 44.2447 66.4235 43.1042 69.4656Z" fill="#C5DCDD" stroke="black" stroke-width="0.496673" stroke-linecap="round" stroke-linejoin="round"/>
<path d="M13.6844 106.376C11.9603 109.852 9.29319 117.161 7.62003 119.695C7.07617 120.519 11.8778 120.764 12.6066 120.031C13.608 119.024 13.6844 115.255 15.673 114.772C17.0643 114.435 18.4587 113.261 17.8099 111.566C16.896 109.18 17.0289 108.05 17.0289 108.05C15.4557 105.832 13.6844 106.376 13.6844 106.376Z" fill="#C48270" stroke="#0F0F0F" stroke-width="0.496673" stroke-linecap="round" stroke-linejoin="round"/>
<path d="M35.1034 23.5777C38.2777 30.1329 34.1001 45.3185 32.178 47.5868C28.6181 51.7929 13.1001 51.1971 13.1001 51.1971L12.47 49.3919C12.47 49.3919 21.0221 43.4968 27.847 43.029C27.847 43.029 29.6679 31.1964 30.272 27.8026C31.0331 23.5259 32.9124 19.053 35.1034 23.5777Z" fill="#C48270" stroke="#0F0F0F" stroke-width="0.496673" stroke-linecap="round" stroke-linejoin="round"/>
<path d="M14.2195 49.5489C13.8774 48.4658 10.9477 49.1439 9.78362 49.8276C8.79338 50.4092 7.59577 51.9703 7.40021 52.3007C7.20464 52.6311 6.76944 54.2997 6.76944 54.2997C6.76944 54.2997 7.19099 54.8633 7.75906 53.8806C8.32713 52.898 9.80038 51.7725 10.1661 52.0189C10.9881 52.5738 8.9964 52.792 8.77848 53.1907C8.56057 53.5894 8.66424 53.8265 8.66424 53.8265C8.66424 53.8265 10.5361 53.7189 10.8372 53.6695C11.1383 53.62 12.3316 52.9372 12.9151 52.3187C13.4987 51.7003 14.4331 50.2239 14.2195 49.5489Z" fill="#E38E32"/>
<path d="M47.7263 19.6118C48.6874 19.972 51.6997 21.3895 51.6997 21.3895C51.6997 21.3895 51.4445 30.5928 50.5903 32.7701C47.0117 41.8918 48.1255 50.2961 48.1255 50.2961C48.1255 50.2961 39.651 52.0793 34.467 50.3597C34.467 50.3597 35.145 43.4199 34.0374 42.5895C32.9298 41.7591 31.1157 39.8935 31.6161 36.1371C32.1165 32.3808 32.0023 22.5299 32.6095 21.8934C33.2166 21.2569 35.8999 19.6008 36.5928 19.6039C37.2856 19.6071 47.7263 19.6118 47.7263 19.6118Z" fill="#F4F1ED" stroke="#070707" stroke-width="0.496673" stroke-linecap="round" stroke-linejoin="round"/>
<path d="M21.2741 38.195H2.2981C2.08897 38.195 1.88293 38.2589 1.69753 38.3812C1.51212 38.5036 1.35283 38.6807 1.23322 38.8976C1.11361 39.1144 1.03722 39.3646 1.01054 39.6269C0.983868 39.8891 1.0077 40.1556 1.08001 40.4037L5.86049 56.838H28.0816L23.1348 39.8378C22.9944 39.3565 22.7409 38.9411 22.4082 38.6475C22.0756 38.3538 21.6798 38.1959 21.2741 38.195Z" fill="#F9A09B" stroke="black" stroke-width="0.496673" stroke-linecap="round" stroke-linejoin="round"/>
<path d="M20.901 39.0285H2.3999C2.19598 39.0286 1.99509 39.091 1.81431 39.2103C1.63353 39.3295 1.4782 39.5022 1.36154 39.7137C1.24488 39.9251 1.17033 40.169 1.14422 40.4247C1.11812 40.6804 1.14124 40.9403 1.21161 41.1822L5.87537 57.2076H27.5427L22.7188 40.6305C22.5818 40.1604 22.3341 39.7548 22.009 39.4683C21.684 39.1818 21.2972 39.0284 20.901 39.0285Z" fill="#F9A09B" stroke="black" stroke-width="0.496673" stroke-linecap="round" stroke-linejoin="round"/>
<path d="M5.87228 56.8913H37.2962C37.6518 56.8913 37.9929 57.0699 38.2444 57.3879C38.4959 57.7058 38.6372 58.137 38.6372 58.5866V58.9602H7.2133C6.85764 58.9602 6.51655 58.7816 6.26506 58.4637C6.01357 58.1458 5.87228 57.7145 5.87228 57.2649V56.8913Z" fill="#F46F40" stroke="black" stroke-width="0.496673" stroke-linecap="round" stroke-linejoin="round"/>
<path d="M21.2741 38.195H2.2981C2.08897 38.195 1.88293 38.2589 1.69753 38.3812C1.51212 38.5036 1.35283 38.6807 1.23322 38.8976C1.11361 39.1144 1.03722 39.3646 1.01054 39.6269C0.983868 39.8891 1.0077 40.1556 1.08001 40.4037L5.86049 56.838H28.0816L23.1348 39.8378C22.9944 39.3565 22.7409 38.9411 22.4082 38.6475C22.0756 38.3538 21.6798 38.1959 21.2741 38.195Z" fill="#F46F40" stroke="black" stroke-width="0.496673" stroke-linecap="round" stroke-linejoin="round"/>
<path d="M14.7262 49.5539C15.1759 48.9225 15.0411 47.8424 14.4253 47.1414C13.8094 46.4403 12.9456 46.3838 12.4959 47.0152C12.0462 47.6466 12.1809 48.7267 12.7968 49.4278C13.4127 50.1288 14.2765 50.1853 14.7262 49.5539Z" fill="#F46F40" stroke="black" stroke-width="0.496673" stroke-linecap="round" stroke-linejoin="round"/>
<path d="M31.0865 57.6306H29.7585V58.2334H31.0865V57.6306Z" fill="#F9A09B" stroke="black" stroke-width="0.496673" stroke-linecap="round" stroke-linejoin="round"/>
<path d="M33.6239 57.6306H32.2959V58.2334H33.6239V57.6306Z" fill="#F9A09B" stroke="black" stroke-width="0.496673" stroke-linecap="round" stroke-linejoin="round"/>
<path d="M38.2678 1.64701C38.2678 1.64701 33.6916 -1.06706 30.8556 4.62244C28.0127 10.3253 31.911 12.8635 29.8746 15.7754C27.6713 18.9274 24.8818 20.7734 27.1429 27.0194C29.4475 33.3885 23.5706 31.0402 24.8415 38.1307H34.806C34.806 38.1307 39.0929 36.2337 37.8065 31.5598C36.5201 26.8859 33.7636 26.2392 36.3469 22.1155C38.287 19.0192 47.2377 19.6503 48.0417 19.9179C48.8457 20.1855 52.2715 21.6674 52.2715 21.6674C52.2715 21.6674 53.6336 16.5147 51.6854 13.6766C49.2201 10.0867 45.1089 12.7348 44.3595 8.52086C43.8529 5.67965 42.8695 2.38007 41.2354 1.7561C39.4797 1.08583 38.2678 1.64701 38.2678 1.64701Z" fill="#1C0E0C"/>
<path d="M37.8605 2.35965C37.8605 2.35965 36.8982 0.470479 32.0122 4.77704C28.9925 7.4393 31.1033 12.8612 29.067 15.773C26.8636 18.925 24.0748 20.771 26.3353 27.017C28.6398 33.3862 22.7629 31.0379 24.0338 38.1283" stroke="#070707" stroke-width="0.496673" stroke-linecap="round" stroke-linejoin="round"/>
<path d="M41.7582 11.5465C41.7582 11.5465 41.6054 15.8374 42.844 18.0389C43.6865 19.5341 42.9297 19.4085 45.8675 19.8355C45.8675 19.8355 46.1742 25.3444 39.3723 25.3444C34.3248 25.3444 36.3457 22.1155 36.3457 22.1155C36.3457 22.1155 38.4528 18.2563 37.5445 11.5465H41.7582Z" fill="#C48270" stroke="#0F0F0F" stroke-width="0.496673" stroke-linecap="round" stroke-linejoin="round"/>
<path d="M41.8246 11.2129C41.8246 11.2129 41.955 19.8355 36.5009 19.8355C36.3905 19.835 36.2817 19.803 36.1824 19.7421C36.4692 19.4893 38.2597 17.6276 37.3763 11.1015H41.8246C41.8246 11.1015 41.8246 11.1392 41.8246 11.2098V11.2129Z" fill="#1C0E0C"/>
<path d="M41.9736 11.0717C41.9736 11.0717 41.1926 18.4431 37.4893 18.4784C35.0537 18.5012 33.6469 14.1837 33.0763 11.9201C32.4251 9.33555 33.1154 4.16956 36.5897 4.2347C39.6069 4.292 41.1839 9.4933 41.1839 9.4933L41.9736 11.0717Z" fill="#C48270" stroke="#0F0F0F" stroke-width="0.496673" stroke-linecap="round" stroke-linejoin="round"/>
<path d="M41.2615 10.6981C41.2615 10.6981 41.1137 10.06 41.2503 9.48388C41.3372 9.11892 41.539 8.7775 41.9649 8.6425" stroke="#070707" stroke-width="0.496673" stroke-linecap="round" stroke-linejoin="round"/>
<path d="M41.9649 9.90299L41.2503 9.48387" stroke="#070707" stroke-width="0.496673" stroke-linecap="round" stroke-linejoin="round"/>
<path d="M47.4966 22.0598C47.4966 22.0598 45.3622 29.0545 48.7762 32.8124C49.8769 34.0235 51.5017 32.9168 51.5017 32.9168" fill="#C48270"/>
<path d="M47.4966 22.0598C47.4966 22.0598 45.3622 29.0545 48.7762 32.8124C49.8769 34.0235 51.5017 32.9168 51.5017 32.9168" stroke="#0F0F0F" stroke-width="0.496673" stroke-linecap="round" stroke-linejoin="round"/>
<path d="M49.0984 29.155C50.3152 34.0259 51.9288 40.9115 51.9288 40.9115C45.5279 41.351 35.8776 46.2588 34.7023 46.867C32.7516 47.4164 29.9895 49.4131 29.4587 49.8142C28.962 50.1713 28.181 51.161 27.9451 51.5582C27.6968 51.9726 27.1187 53.4646 27.1187 53.4646C27.2418 53.5415 27.3818 53.564 27.5162 53.5284C27.6506 53.4928 27.7717 53.4013 27.86 53.2684C28.0879 52.9545 28.4703 52.1978 28.777 51.8297C28.4989 52.7127 28.2387 53.6247 28.2387 53.6247C28.2387 53.6247 28.9285 53.8382 29.8126 53.4772C30.236 53.3045 30.7041 52.2779 31.1995 51.6021C31.695 50.9264 32.7759 51.2458 33.858 51.0143C34.9401 50.7827 35.6913 48.7766 35.6913 48.7766L35.6764 48.7437C38.4857 48.8025 53.2605 48.9242 56.4789 45.1223C58.4035 42.8517 55.909 28.064 52.7347 21.5096C51.3384 18.6276 49.2579 19.0145 48.2826 20.8495C47.9567 21.4609 47.5674 21.818 47.5513 22.6838" fill="#C48270"/>
<path d="M49.0984 29.155C50.3152 34.0259 51.9288 40.9115 51.9288 40.9115C45.5279 41.351 35.8776 46.2588 34.7023 46.867C32.7516 47.4164 29.9895 49.4131 29.4587 49.8142C28.962 50.1713 28.181 51.161 27.9451 51.5582C27.6968 51.9726 27.1187 53.4646 27.1187 53.4646C27.2418 53.5415 27.3818 53.564 27.5162 53.5284C27.6506 53.4928 27.7717 53.4013 27.86 53.2684C28.0879 52.9545 28.4703 52.1978 28.777 51.8297C28.4989 52.7127 28.2387 53.6247 28.2387 53.6247C28.2387 53.6247 28.9285 53.8382 29.8126 53.4772C30.236 53.3045 30.7041 52.2779 31.1995 51.6021C31.695 50.9264 32.7759 51.2458 33.858 51.0143C34.9401 50.7827 35.6913 48.7766 35.6913 48.7766L35.6764 48.7437C38.4857 48.8025 53.2605 48.9242 56.4789 45.1223C58.4035 42.8517 55.909 28.064 52.7347 21.5096C51.3384 18.6276 49.2579 19.0145 48.2826 20.8495C47.9567 21.4609 47.5674 21.818 47.5513 22.6838" stroke="#0F0F0F" stroke-width="0.496673" stroke-linecap="round" stroke-linejoin="round"/>
<path d="M28.7906 53.6836C28.7785 53.686 28.766 53.6841 28.7546 53.6781C28.7465 53.6743 28.7391 53.6685 28.7329 53.6609C28.7266 53.6533 28.7217 53.6442 28.7184 53.634C28.7152 53.6239 28.7136 53.613 28.7138 53.6021C28.7141 53.5912 28.7161 53.5804 28.7199 53.5705C28.8031 53.321 29.5419 51.1257 29.8672 50.8282C30.4315 50.3118 31.1666 49.6344 31.1666 49.6344L31.2436 49.7679C31.2436 49.7679 30.5079 50.446 29.9442 50.9617C29.6958 51.1908 29.062 52.9686 28.8403 53.6302C28.8364 53.6437 28.8297 53.6558 28.821 53.6651C28.8123 53.6745 28.8019 53.6808 28.7906 53.6836Z" stroke="#070707" stroke-width="0.496673" stroke-linecap="round" stroke-linejoin="round"/>
<path d="M29.4935 53.5329C29.4818 53.5352 29.4698 53.5334 29.4588 53.5279C29.4479 53.5223 29.4383 53.513 29.4311 53.5012C29.4239 53.4893 29.4194 53.4752 29.418 53.4603C29.4167 53.4454 29.4185 53.4304 29.4233 53.4167C29.4531 53.3382 30.1596 51.3973 30.4899 51.0951C31.0543 50.5794 31.7893 49.9021 31.7893 49.9021L31.8663 50.0355C31.8663 50.0355 31.1306 50.7129 30.5669 51.2293C30.3186 51.4585 29.7418 52.9356 29.5419 53.4858C29.5374 53.498 29.5307 53.5087 29.5223 53.5169C29.5138 53.5251 29.5039 53.5306 29.4935 53.5329Z" stroke="#070707" stroke-width="0.496673" stroke-linecap="round" stroke-linejoin="round"/>
<path d="M40.9517 12.7984C40.9517 12.7984 40.9387 22.285 45.0033 22.9702C49.0679 23.6554 52.2864 20.2452 52.2864 20.2452" fill="#1C0E0C"/>
<path d="M35.9247 11.198L35.705 13.4914L36.4723 14.0573" stroke="#070707" stroke-width="0.496673" stroke-linecap="round" stroke-linejoin="round"/>
<path d="M37.5259 11.251C37.6883 11.1789 37.7589 10.9007 37.6836 10.6295C37.6083 10.3584 37.4156 10.1969 37.2532 10.269C37.0908 10.3411 37.0202 10.6193 37.0955 10.8905C37.1708 11.1617 37.3634 11.3231 37.5259 11.251Z" fill="#1C0E0C"/>
<path d="M34.779 12.1391C34.9414 12.0671 35.012 11.7888 34.9367 11.5177C34.8615 11.2465 34.6688 11.0851 34.5064 11.1571C34.3439 11.2292 34.2733 11.5074 34.3486 11.7786C34.4239 12.0498 34.6166 12.2112 34.779 12.1391Z" fill="#1C0E0C"/>
<path d="M36.4102 9.18092C36.4102 9.18092 36.9467 8.37173 38.1027 9.07654" stroke="#070707" stroke-width="0.496673" stroke-linecap="round" stroke-linejoin="round"/>
<path d="M33.5749 10.3127C33.5749 10.3127 33.8772 9.32691 34.9923 9.74603" stroke="#070707" stroke-width="0.496673" stroke-linecap="round" stroke-linejoin="round"/>
<path d="M35.2536 3.8658C35.2536 3.8658 37.0497 2.92396 37.6488 5.17103C38.2479 7.41811 39.2239 9.29472 41.1926 7.98949C43.1613 6.68425 42.3554 4.98816 42.3554 4.98816" fill="#1C0E0C"/>
<path d="M41.4496 11.1046C42.1577 11.1046 42.7316 10.379 42.7316 9.48387C42.7316 8.58876 42.1577 7.86312 41.4496 7.86312C40.7416 7.86312 40.1676 8.58876 40.1676 9.48387C40.1676 10.379 40.7416 11.1046 41.4496 11.1046Z" fill="#C48270"/>
<path d="M40.9629 10.4728C40.9629 10.4728 40.8145 9.83471 40.9517 9.25862C41.038 8.89366 41.2398 8.55224 41.6657 8.41724" stroke="#070707" stroke-width="0.496673" stroke-linecap="round" stroke-linejoin="round"/>
<path d="M41.6657 9.67772L40.9517 9.2586" stroke="#070707" stroke-width="0.496673" stroke-linecap="round" stroke-linejoin="round"/>
<path d="M40.8853 7.76109C40.5196 3.53616 37.1937 1.11799 37.1602 1.10229L38.762 1.24043C38.9557 1.32362 40.8002 1.64699 42.5212 7.25015L40.8853 7.76109Z" fill="#EFAF00" stroke="black" stroke-width="0.496673" stroke-linecap="round" stroke-linejoin="round"/>
<path d="M42.1622 13.4825C43.0055 13.3402 43.54 11.8125 43.3561 10.0703C43.1722 8.32798 42.3395 7.03089 41.4963 7.17312C40.6531 7.31535 40.1186 8.84305 40.3025 10.5853C40.4864 12.3276 41.319 13.6247 42.1622 13.4825Z" fill="#EFAF00" stroke="black" stroke-width="0.496673" stroke-linecap="round" stroke-linejoin="round"/>
<path d="M42.6946 13.3934C43.5378 13.2512 44.0723 11.7235 43.8884 9.98118C43.7045 8.2389 42.8719 6.94181 42.0286 7.08404C41.1854 7.22627 40.6509 8.75397 40.8348 10.4963C41.0187 12.2385 41.8513 13.5356 42.6946 13.3934Z" fill="#EFAF00" stroke="black" stroke-width="0.496673" stroke-linecap="round" stroke-linejoin="round"/>
<path d="M36.4723 15.2197C36.4723 15.2197 37.6693 15.4802 38.2057 13.9843" stroke="#070707" stroke-width="0.496673" stroke-linecap="round" stroke-linejoin="round"/>
</svg>
