<svg width="163" height="126" viewBox="0 0 163 126" fill="none" xmlns="http://www.w3.org/2000/svg">
<path opacity="0.1" d="M86.1366 126C115.77 126 139.792 122.519 139.792 118.224C139.792 113.93 115.77 110.449 86.1366 110.449C56.5035 110.449 32.4812 113.93 32.4812 118.224C32.4812 122.519 56.5035 126 86.1366 126Z" fill="black"/>
<path opacity="0.1" d="M148.991 115.441C153.328 115.441 156.843 114.315 156.843 112.927C156.843 111.539 153.328 110.414 148.991 110.414C144.655 110.414 141.139 111.539 141.139 112.927C141.139 114.315 144.655 115.441 148.991 115.441Z" fill="black"/>
<path d="M148.673 113.284C148.673 113.284 150.767 106.869 148.279 102.147C147.219 100.172 146.9 97.9413 147.368 95.7893C147.6 94.769 147.934 93.7699 148.368 92.8046" stroke="#535461" stroke-width="0.348978" stroke-miterlimit="10"/>
<path d="M146.819 89.8216C146.819 90.607 148.4 92.8879 148.4 92.8879C148.4 92.8879 149.98 90.6086 149.98 89.8216C149.98 89.4439 149.814 89.0817 149.517 88.8147C149.22 88.5476 148.818 88.3976 148.399 88.3976C147.979 88.3976 147.577 88.5476 147.28 88.8147C146.984 89.0817 146.817 89.4439 146.817 89.8216H146.819Z" fill="#6C63FF"/>
<path d="M144.205 94.1776C144.679 94.8373 147.384 95.9778 147.384 95.9778C147.384 95.9778 147.335 93.29 146.861 92.6303C146.633 92.3134 146.274 92.0911 145.864 92.0121C145.454 91.9332 145.026 92.0041 144.674 92.2093C144.322 92.4145 144.075 92.7371 143.988 93.1062C143.9 93.4754 143.979 93.8607 144.207 94.1776H144.205Z" fill="#6C63FF"/>
<path d="M144.318 101.619C145.098 101.972 148.072 101.729 148.072 101.729C148.072 101.729 146.522 99.4305 145.742 99.0771C145.557 98.9929 145.355 98.9425 145.148 98.9286C144.941 98.9147 144.733 98.9376 144.535 98.9961C144.338 99.0546 144.156 99.1475 143.998 99.2695C143.841 99.3914 143.712 99.5401 143.619 99.707C143.525 99.8739 143.469 100.056 143.454 100.242C143.438 100.429 143.464 100.616 143.529 100.793C143.594 100.971 143.697 101.135 143.832 101.277C143.968 101.418 144.133 101.535 144.318 101.619Z" fill="#6C63FF"/>
<path d="M145.814 107.233C146.512 107.704 149.492 107.912 149.492 107.912C149.492 107.912 148.396 105.412 147.695 104.941C147.528 104.83 147.338 104.749 147.137 104.704C146.935 104.659 146.726 104.65 146.52 104.678C146.315 104.705 146.118 104.769 145.94 104.865C145.762 104.962 145.606 105.088 145.483 105.239C145.359 105.389 145.27 105.56 145.22 105.741C145.17 105.923 145.16 106.111 145.19 106.296C145.221 106.481 145.292 106.658 145.399 106.819C145.506 106.979 145.647 107.119 145.814 107.23V107.233Z" fill="#6C63FF"/>
<path d="M150.703 96.1301C150.076 96.6784 147.157 97.2455 147.157 97.2455C147.157 97.2455 147.873 94.6363 148.499 94.088C148.8 93.8249 149.204 93.6802 149.624 93.6856C150.043 93.6911 150.443 93.8463 150.735 94.1171C151.027 94.3879 151.188 94.7521 151.182 95.1296C151.176 95.5072 151.004 95.867 150.703 96.1301Z" fill="#6C63FF"/>
<path d="M152.355 102.714C151.575 103.067 148.602 102.824 148.602 102.824C148.602 102.824 150.151 100.525 150.931 100.172C151.306 100.002 151.74 99.9729 152.138 100.091C152.536 100.209 152.866 100.465 153.055 100.802C153.244 101.139 153.276 101.53 153.145 101.888C153.014 102.247 152.73 102.544 152.355 102.714Z" fill="#6C63FF"/>
<path d="M152.994 109.313C152.296 109.784 149.316 109.991 149.316 109.991C149.316 109.991 150.411 107.491 151.113 107.024C151.45 106.799 151.872 106.705 152.287 106.761C152.702 106.816 153.075 107.018 153.324 107.322C153.574 107.625 153.679 108.005 153.617 108.379C153.555 108.752 153.331 109.088 152.994 109.313Z" fill="#6C63FF"/>
<path opacity="0.1" d="M11.1446 112.299C15.4812 112.299 18.9966 111.174 18.9966 109.786C18.9966 108.398 15.4812 107.272 11.1446 107.272C6.80808 107.272 3.29262 108.398 3.29262 109.786C3.29262 111.174 6.80808 112.299 11.1446 112.299Z" fill="black"/>
<path d="M11.1516 109.811C11.1516 109.811 15.6307 96.1176 10.3123 86.0405C8.07884 81.8102 7.34599 77.0631 8.37024 72.473C8.86078 70.2942 9.57218 68.1604 10.4955 66.0985" stroke="#535461" stroke-width="0.348978" stroke-miterlimit="10"/>
<path d="M7.19246 59.7287C7.19246 61.4064 10.5671 66.2729 10.5671 66.2729C10.5671 66.2729 13.9417 61.4032 13.9417 59.7287C13.9417 58.9229 13.5862 58.1502 12.9533 57.5805C12.3204 57.0107 11.4621 56.6906 10.5671 56.6906C9.67207 56.6906 8.81373 57.0107 8.18086 57.5805C7.548 58.1502 7.19246 58.9229 7.19246 59.7287Z" fill="#6C63FF"/>
<path d="M1.61403 69.0234C2.62781 70.4372 8.39817 72.8658 8.39817 72.8658C8.39817 72.8658 8.29348 67.129 7.27969 65.7215C7.0444 65.3763 6.7348 65.0769 6.36911 64.841C6.00342 64.6051 5.58902 64.4373 5.15028 64.3477C4.71154 64.2581 4.25731 64.2483 3.81432 64.319C3.37133 64.3897 2.94852 64.5394 2.57075 64.7594C2.19297 64.9794 1.86787 65.2651 1.61455 65.5998C1.36123 65.9345 1.18482 66.3115 1.09568 66.7085C1.00654 67.1055 1.00648 67.5145 1.0955 67.9115C1.18451 68.3085 1.36082 68.6855 1.61403 69.0203V69.0234Z" fill="#6C63FF"/>
<path d="M1.85656 84.9079C3.51595 85.6635 9.86735 85.1483 9.86735 85.1483C9.86735 85.1483 6.55206 80.2441 4.89616 79.4932C4.50043 79.3135 4.06926 79.2058 3.62728 79.1761C3.1853 79.1465 2.74115 79.1954 2.3202 79.3203C1.47006 79.5725 0.766005 80.1184 0.362928 80.8379C-0.0401478 81.5574 -0.109229 82.3915 0.17088 83.1569C0.45099 83.9222 1.05735 84.5561 1.85656 84.9189V84.9079Z" fill="#6C63FF"/>
<path d="M5.04798 96.8889C6.54684 97.8864 12.9 98.3372 12.9 98.3372C12.9 98.3372 10.5618 92.9963 9.06123 92.0035C8.34162 91.5244 7.44006 91.3223 6.55491 91.4416C5.66975 91.5609 4.87349 91.9919 4.3413 92.6397C3.80911 93.2876 3.58458 94.0992 3.71711 94.8961C3.84964 95.6929 4.32837 96.4098 5.04798 96.8889Z" fill="#6C63FF"/>
<path d="M15.4842 73.1909C14.1476 74.3596 7.91831 75.5708 7.91831 75.5708C7.91831 75.5708 9.44335 70.0005 10.7799 68.8318C11.0979 68.5533 11.4736 68.3339 11.8857 68.1862C12.2978 68.0384 12.7383 67.9652 13.1818 67.9706C13.6254 67.9761 14.0634 68.0602 14.4708 68.218C14.8783 68.3759 15.2472 68.6045 15.5566 68.8907C15.8659 69.1769 16.1096 69.5152 16.2737 69.8862C16.4379 70.2572 16.5192 70.6537 16.5131 71.053C16.5071 71.4523 16.4137 71.8466 16.2383 72.2135C16.063 72.5803 15.8091 72.9124 15.4911 73.1909H15.4842Z" fill="#6C63FF"/>
<path d="M19.0176 87.2454C17.3529 88.001 11.0068 87.4794 11.0068 87.4794C11.0068 87.4794 14.3221 82.5752 15.978 81.8244C16.7772 81.4615 17.7038 81.3993 18.5539 81.6515C19.4041 81.9036 20.1081 82.4495 20.5112 83.169C20.9143 83.8885 20.9834 84.7227 20.7032 85.488C20.4231 86.2534 19.8168 86.8872 19.0176 87.2501V87.2454Z" fill="#6C63FF"/>
<path d="M20.3699 101.328C18.871 102.326 12.5178 102.776 12.5178 102.776C12.5178 102.776 14.856 97.4355 16.3566 96.4428C17.0762 95.9637 17.9778 95.7615 18.8629 95.8808C19.7481 96.0001 20.5443 96.4311 21.0765 97.079C21.6087 97.7268 21.8333 98.5384 21.7007 99.3353C21.5682 100.132 21.0895 100.849 20.3699 101.328Z" fill="#6C63FF"/>
<path d="M141.04 58.2175C141.467 58.0317 141.824 57.7381 142.069 57.3724C141.474 57.206 140.895 56.9959 140.338 56.7441L140.839 54.7805C140.884 54.5972 140.888 54.4077 140.851 54.223C140.813 54.0383 140.735 53.8622 140.622 53.7049C140.508 53.5475 140.361 53.4122 140.188 53.3066C140.016 53.2011 139.822 53.1275 139.618 53.0902L139.024 52.9724C138.613 52.8886 138.181 52.9536 137.822 53.1533C137.463 53.3531 137.206 53.6717 137.105 54.0406L136.995 54.471C136.178 53.6778 135.508 52.7707 135.013 51.7849C134.838 51.4882 134.748 51.1575 134.749 50.8219C134.782 50.4214 135.046 50.0695 135.261 49.7223C135.994 48.5176 136.233 47.1193 135.938 45.7716C135.667 44.5652 134.981 43.4672 134.542 42.3016C133.673 39.9937 133.772 37.4792 134.821 35.2327C135.426 33.9478 136.356 32.6173 135.965 31.2695C135.531 29.7662 133.697 29.0027 132.127 28.2848C130.556 27.567 128.893 26.3087 129.22 24.7834C129.323 24.3027 129.625 23.8315 129.502 23.3555C129.338 22.7271 128.527 22.413 127.82 22.2182C125.931 21.6778 124.013 21.1327 122.027 21.0495C120.398 20.9819 118.695 21.2647 117.337 22.0281C116.934 22.2267 116.56 22.4677 116.22 22.746C115.911 23.0353 115.58 23.3055 115.231 23.555C114.515 23.8802 113.66 23.8377 112.853 23.9069C111.921 23.9841 111.022 24.2528 110.225 24.6923C109.735 24.9253 109.293 25.2318 108.918 25.5987C108.002 26.5098 107.599 27.845 108.045 28.9933C108.137 29.2206 108.262 29.4356 108.417 29.6326C107.725 30.6551 107.359 31.8297 107.36 33.0273C107.36 36.4329 110.268 39.24 114.022 39.6406C114.242 40.3993 114.454 41.1941 114.62 41.9309C114.576 41.9671 114.528 42.0006 114.479 42.0314C114.17 42.1649 113.818 42.2498 113.495 42.3644C113.256 42.4488 113.028 42.5541 112.812 42.6786C111.216 43.453 110.398 45.1307 109.738 46.6639C110.192 46.59 110.642 46.5068 111.089 46.4078C111.066 46.4581 111.048 46.5068 111.033 46.5523C110.574 47.9661 108.044 55.8424 108.044 55.8424L108.581 54.8025C108.603 54.9508 108.575 55.1016 108.503 55.236C108.279 55.6272 108.707 55.3429 109.386 54.7789C109.386 54.8119 109.394 54.8308 109.42 54.8323C107.826 57.176 102.804 64.4947 100.305 67.4636C97.2009 67.839 94.9396 68.161 94.9396 68.161C94.4482 68.1649 93.9647 68.2725 93.5279 68.4752C92.9151 68.7586 92.3983 69.1853 92.0318 69.7104C91.6652 70.2356 91.4624 70.8398 91.4445 71.4598L91.2701 76.4348C91.2701 76.4348 89.9404 82.4181 89.9666 85.8253C89.9462 86.401 89.9977 86.9769 90.1202 87.5423C90.329 88.3959 90.4314 89.2679 90.4255 90.142C90.4165 91.1663 90.3143 92.1881 90.1202 93.1974C90.1289 93.2052 90.1446 93.2131 90.1551 93.2209C90.1341 93.3356 90.1202 93.3984 90.1202 93.3984C90.3732 93.6199 91.1479 93.7817 92.1373 93.898C91.8581 95.296 90.8321 96.7255 87.8221 96.8308C83.425 96.98 82.5124 97.6743 82.338 98.0309C82.2998 98.0965 82.2887 98.1722 82.3065 98.2445C82.5369 100.869 89.0872 100.566 91.0415 100.668C91.3297 100.675 91.6178 100.651 91.9 100.598C92.0745 100.569 92.2489 100.533 92.4356 100.491C92.905 100.384 93.432 100.233 93.9816 100.054C94.6412 99.839 95.3357 99.5829 96.0092 99.3049C96.3459 99.1666 96.6757 99.0237 96.995 98.8792C97.2079 98.7818 97.4138 98.6844 97.6127 98.587C98.6091 98.1 99.4169 97.613 99.7747 97.2345C99.8077 97.1998 99.8381 97.163 99.8654 97.1245C99.8741 97.1104 99.8828 97.0962 99.8916 97.0821C99.9003 97.0679 99.923 97.0318 99.9369 97.0051C99.9509 96.9784 99.9544 96.969 99.9614 96.9501C99.9683 96.9313 99.9806 96.903 99.9893 96.8794C99.998 96.8559 100.003 96.837 100.01 96.815C100.017 96.7931 100.021 96.7711 100.026 96.7491C100.031 96.7271 100.036 96.7004 100.04 96.6752C100.043 96.6501 100.04 96.6391 100.04 96.6203C100.131 95.7736 99.4239 94.6221 98.8499 93.8461V90.5662C98.8499 90.5662 99.663 82.8423 99.6473 79.4335C99.6711 78.9017 99.6349 78.369 99.5391 77.8438C99.492 77.6808 99.4627 77.514 99.4518 77.3458C99.4526 77.0841 99.553 76.8306 99.7362 76.6273C99.9194 76.4241 100.174 76.2835 100.459 76.229C102.504 75.2707 107.787 75.6619 111.738 76.1394C108.305 76.6107 100.628 77.4244 100.628 78.3512V80.5504C100.635 81.0841 100.863 81.5963 101.267 81.9866C101.672 82.3768 102.223 82.617 102.814 82.66V120.153H105.547V82.671H129.83V120.153H132.563V82.2406C133.218 81.9378 133.769 81.4789 134.154 80.9138C134.54 80.3487 134.746 79.6992 134.749 79.0361V78.491L139.836 58.6982C140.261 58.5912 140.666 58.4292 141.04 58.2175ZM130.902 78.1973C130.741 77.5689 129.607 77.0113 127.799 76.5777C130.867 75.2236 131.514 72.5375 131.492 70.4514C131.497 69.7438 131.432 69.0373 131.298 68.3401C131.492 68.1928 131.64 68.0025 131.728 67.7879C131.816 67.5734 131.84 67.342 131.799 67.1164C131.838 66.7015 131.737 66.2855 131.511 65.9226C129.696 62.6238 129.417 60.7387 129.378 58.1751C129.739 58.4783 130.155 58.7233 130.609 58.8993C131.68 59.3155 132.877 59.3894 134.051 59.38C134.618 59.38 135.185 59.3501 135.753 59.3108L130.902 78.1973ZM112.197 58.4563C112.343 58.7045 112.432 58.8616 112.432 58.8616L112.933 58.4626C115.329 58.5364 115.842 59.5795 115.915 60.2722C115.908 60.3409 115.897 60.4091 115.88 60.4764L113.811 65.9289C110.218 65.4309 108.647 66.298 108.204 66.6216C107.096 66.7159 105.969 66.8258 104.859 66.9358C107.087 64.325 110.158 60.8 112.197 58.4563Z" fill="url(#paint0_linear_4_2)"/>
<path d="M106.402 51.6042C106.402 51.6042 98.2636 63.9559 96.3564 65.5958C96.3564 65.5958 88.2182 73.1988 92.3554 72.6647C92.659 72.6254 98.6143 68.0935 98.9615 67.352C99.3088 66.6106 110.57 53.4405 110.57 53.4405L108.965 52.11L106.402 51.6042Z" fill="#F8BDC5"/>
<path d="M128.857 118.237H131.437V81.2526H128.857V118.237Z" fill="#40414D"/>
<path d="M103.053 118.237H105.634V81.2526H103.053V118.237Z" fill="#40414D"/>
<path d="M100.987 77.7653C100.987 79.179 111.713 80.321 118.272 80.321C124.831 80.321 129.888 79.179 129.888 77.7653C129.888 76.3515 124.828 75.2095 118.271 75.2095C111.713 75.2095 100.987 76.3515 100.987 77.7653Z" fill="#F6C6CD"/>
<path d="M130.361 81.9485H102.819C102.578 81.9495 102.339 81.9076 102.116 81.8252C101.892 81.7427 101.689 81.6214 101.518 81.4681C101.347 81.3149 101.212 81.1327 101.119 80.9321C101.026 80.7314 100.979 80.5163 100.979 80.2991V77.7653H133.502V79.1209C133.502 79.8708 133.171 80.59 132.582 81.1203C131.993 81.6505 131.194 81.9485 130.361 81.9485Z" fill="#40414D"/>
<path d="M130.336 81.5109L128.964 81.2321L135.8 53.9663C135.872 53.6818 136.066 53.4345 136.339 53.2788C136.613 53.123 136.945 53.0716 137.261 53.1358L138.41 53.3693C138.726 53.4335 139 53.6081 139.173 53.8546C139.346 54.1012 139.403 54.3995 139.332 54.684L132.982 80.0099C132.853 80.5244 132.502 80.9717 132.007 81.2534C131.512 81.5351 130.912 81.6281 130.341 81.5119L130.336 81.5109Z" fill="#40414D"/>
<path d="M98.9615 91.9391C98.9615 91.9391 101.567 94.8719 100.481 96.0453C99.396 97.2187 93.9764 99.4619 92.2297 99.3692C90.3836 99.2719 84.2032 99.564 83.9781 97.024C83.9781 97.024 83.5436 95.8505 89.1901 95.6557C94.8366 95.461 93.0917 90.175 93.0917 90.175L98.9615 91.9391Z" fill="#594C76"/>
<path opacity="0.1" d="M130.01 67.3049C130.01 67.3049 132.615 75.3163 124.798 76.6892L116.328 76.2981C116.328 76.2981 104.385 74.1476 101.127 75.7121C101.127 75.7121 99.8235 75.9069 100.254 77.4715C100.685 79.0361 99.6037 89.5922 99.6037 89.5922V93.111C99.6037 93.111 92.2193 93.111 91.3521 92.3255C91.3521 92.3255 92.0029 89.198 91.3521 86.6563C90.7012 84.1147 92.4374 76.0986 92.4374 76.0986L92.6119 71.2823C92.6247 70.6861 92.8139 70.1037 93.1598 69.5951C93.5058 69.0865 93.996 68.6701 94.5801 68.3888C94.9911 68.1928 95.4482 68.0883 95.9132 68.0841C95.9132 68.0841 110.68 65.9336 115.892 66.3247C121.104 66.7159 130.01 67.3049 130.01 67.3049Z" fill="black"/>
<path d="M130.01 67.1086C130.01 67.1086 132.615 75.1199 124.798 76.4929L116.328 76.1017C116.328 76.1017 104.385 73.9512 101.127 75.5158C101.127 75.5158 99.8235 75.7106 100.255 77.2752C100.685 78.8397 99.6054 89.3896 99.6054 89.3896V92.9083C99.6054 92.9083 92.221 92.9083 91.3538 92.1229C91.3538 92.1229 92.0047 88.9953 91.3538 86.4537C90.703 83.912 92.4391 75.8959 92.4391 75.8959L92.6136 71.0797C92.6265 70.4834 92.8156 69.901 93.1615 69.3925C93.5075 68.8839 93.9978 68.4675 94.5819 68.1862C94.9928 67.9902 95.4499 67.8857 95.915 67.8814C95.915 67.8814 110.682 65.7309 115.894 66.1221C121.106 66.5132 130.01 67.1086 130.01 67.1086Z" fill="#8B9CD1"/>
<path d="M115.459 41.4989C115.459 41.4989 111.551 45.6051 111.116 46.9733C110.682 48.3415 105.904 51.8603 105.904 51.8603C105.904 51.8603 109.379 54.2024 108.733 55.379C108.087 56.5555 113.287 51.4691 113.287 51.4691L119.368 43.4577L115.459 41.4989Z" fill="#6C63FF"/>
<path opacity="0.1" d="M115.459 41.4989C115.459 41.4989 111.551 45.6051 111.116 46.9733C110.682 48.3415 105.904 51.8603 105.904 51.8603C105.904 51.8603 109.379 54.2024 108.733 55.379C108.087 56.5555 113.287 51.4691 113.287 51.4691L119.368 43.4577L115.459 41.4989Z" fill="black"/>
<path d="M112.853 36.8067C112.853 36.8067 114.807 42.476 114.807 44.6265C114.807 46.777 123.058 44.0405 122.833 42.8671C122.608 41.6937 118.056 37.3927 117.838 35.6412C117.62 33.8897 112.853 36.8067 112.853 36.8067Z" fill="#F8BDC5"/>
<path opacity="0.1" d="M119.377 40.7166C119.377 40.7166 126.978 38.9572 128.063 48.9275C129.148 58.8977 127.19 60.0711 130.452 66.1315C133.713 72.1919 108.3 66.9169 108.3 66.9169C108.3 66.9169 109.604 65.5487 113.729 66.1315L115.683 60.8534C115.683 60.8534 116.334 58.5081 112.643 58.5081C108.953 58.5081 110.689 51.6655 110.689 51.6655C110.689 51.6655 112.643 45.7999 113.729 45.214C114.814 44.628 116.759 41.1077 119.377 40.7166Z" fill="black"/>
<path d="M119.377 40.3255C119.377 40.3255 126.978 38.5661 128.063 48.5363C129.148 58.5065 127.19 59.68 130.452 65.7403C133.713 71.8007 108.3 66.5258 108.3 66.5258C108.3 66.5258 109.604 65.1576 113.729 65.7403L115.683 60.4623C115.683 60.4623 116.334 58.117 112.643 58.117C108.953 58.117 110.689 51.2743 110.689 51.2743C110.689 51.2743 112.643 45.4087 113.729 44.8228C114.814 44.2369 116.759 40.7166 119.377 40.3255Z" fill="#6C63FF"/>
<path d="M110.066 54.2747C110.066 54.2747 101.928 66.6263 100.021 68.2663C100.021 68.2663 91.8825 75.8692 96.0196 75.3351C96.3232 75.2959 102.279 70.7639 102.626 70.0225C102.973 69.2811 114.235 56.111 114.235 56.111L112.629 54.7805L110.066 54.2747Z" fill="#F8BDC5"/>
<path opacity="0.1" d="M123.929 49.5134L112.413 58.8977C112.413 58.8977 110.247 54.9878 109.597 54.9878C108.946 54.9878 117.414 43.453 117.414 43.453C117.414 43.453 119.586 41.1077 120.888 42.2796C122.19 43.4515 126.1 42.6707 123.929 49.5134Z" fill="black"/>
<path d="M124.146 49.1223L112.629 58.5066C112.629 58.5066 110.457 54.5967 109.806 54.5967C109.155 54.5967 117.632 43.0619 117.632 43.0619C117.632 43.0619 119.804 40.7166 121.106 41.8885C122.408 43.0603 126.318 42.2796 124.146 49.1223Z" fill="#6C63FF"/>
<path d="M114.807 40.3255C118.765 40.3255 121.973 37.437 121.973 33.8739C121.973 30.3109 118.765 27.4224 114.807 27.4224C110.849 27.4224 107.641 30.3109 107.641 33.8739C107.641 37.437 110.849 40.3255 114.807 40.3255Z" fill="#F8BDC5"/>
<path opacity="0.1" d="M111.322 31.7533C110.026 31.9104 108.719 31.081 108.29 29.9688C107.86 28.8566 108.241 27.5638 109.106 26.6826C109.972 25.8013 111.26 25.3081 112.561 25.1934C113.352 25.1243 114.194 25.1745 114.884 24.8195C115.318 24.5965 115.641 24.2352 116.006 23.9273C117.372 22.768 119.352 22.347 121.228 22.4255C123.104 22.5041 124.915 23.0335 126.702 23.5566C127.368 23.7513 128.136 24.042 128.29 24.6562C128.407 25.118 128.115 25.5751 128.023 26.0385C127.716 27.5136 129.295 28.7263 130.769 29.4284C132.244 30.1306 133.981 30.8689 134.392 32.3251C134.76 33.6305 133.882 34.917 133.31 36.1611C132.32 38.3399 132.226 40.7653 133.046 43.0006C133.465 44.1285 134.114 45.1998 134.369 46.3607C134.649 47.6639 134.423 49.0142 133.73 50.1857C133.526 50.5282 133.277 50.869 133.247 51.2555C133.245 51.5799 133.33 51.9001 133.495 52.1886C134.123 53.4595 135.041 54.5975 136.189 55.5292C137.337 56.4608 138.689 57.1652 140.158 57.597C139.693 58.3573 138.675 58.6746 137.737 58.8741C136.135 59.2128 134.496 59.3909 132.851 59.4051C131.745 59.4145 130.609 59.3438 129.598 58.9338C128.588 58.5238 127.71 57.74 127.52 56.7582C127.41 56.1895 127.532 55.602 127.454 55.0302C127.279 53.7421 126.129 52.7321 125.709 51.4911C125.306 50.3051 125.072 50.1245 125.227 48.8913C125.383 47.6582 125.353 46.2884 124.46 45.3443C123.524 44.3547 121.881 44.1348 120.471 44.416C119.061 44.6972 118.332 44.2997 117.044 44.8872C114.791 45.9192 112.385 46.6555 109.9 47.0739C110.574 45.4684 111.42 43.6981 113.186 43.0493C113.692 42.864 114.278 42.765 114.622 42.3833C115.17 41.7738 114.796 40.7967 115.269 40.1401C115.742 39.4835 116.868 39.4536 117.515 38.907C118.065 38.4357 118.166 37.6644 117.953 37.0141C117.74 36.3638 117.271 35.8092 116.796 35.2861C116.376 34.8159 115.946 34.3531 115.507 33.8975C115.097 33.515 114.754 33.0786 114.491 32.6031C114.343 32.289 114.371 31.6952 114.128 31.4454C113.514 30.8124 112.071 31.6638 111.322 31.7533Z" fill="black"/>
<path d="M111.586 31.6103C110.289 31.7674 108.982 30.938 108.553 29.8258C108.124 28.7137 108.504 27.4209 109.37 26.5396C110.235 25.6584 111.523 25.1651 112.825 25.0504C113.615 24.9813 114.458 25.0316 115.147 24.6766C115.582 24.4535 115.904 24.0922 116.269 23.7843C117.635 22.625 119.616 22.2041 121.492 22.2826C123.367 22.3611 125.179 22.8905 126.965 23.4136C127.632 23.6084 128.4 23.899 128.553 24.5132C128.67 24.975 128.379 25.4322 128.286 25.8956C127.979 27.3706 129.558 28.5833 131.033 29.2855C132.507 29.9876 134.245 30.726 134.655 32.1821C135.023 33.4875 134.146 34.774 133.573 36.0182C132.583 38.197 132.49 40.6224 133.31 42.8577C133.728 43.9856 134.378 45.0569 134.632 46.2177C134.912 47.521 134.687 48.8712 133.994 50.0428C133.79 50.3852 133.54 50.7261 133.51 51.1125C133.508 51.437 133.593 51.7571 133.758 52.0456C134.387 53.3165 135.305 54.4546 136.453 55.3862C137.601 56.3178 138.953 57.0223 140.422 57.4541C139.956 58.2144 138.939 58.5317 138 58.7312C136.398 59.0699 134.76 59.248 133.114 59.2621C132.008 59.2716 130.872 59.2009 129.862 58.7909C128.852 58.3809 127.974 57.597 127.784 56.6152C127.674 56.0466 127.796 55.4591 127.717 54.8873C127.543 53.5992 126.393 52.5891 125.972 51.3482C125.569 50.1622 125.336 49.9815 125.491 48.7484C125.646 47.5153 125.616 46.1455 124.723 45.2014C123.788 44.2118 122.144 43.9918 120.734 44.273C119.324 44.5542 118.595 44.1568 117.307 44.7443C115.054 45.7762 112.649 46.5126 110.164 46.9309C110.837 45.3255 111.684 43.5551 113.449 42.9064C113.955 42.721 114.542 42.622 114.885 42.2403C115.433 41.6308 115.06 40.6538 115.533 39.9971C116.006 39.3405 117.131 39.3107 117.778 38.764C118.328 38.2928 118.429 37.5215 118.216 36.8711C118.004 36.2208 117.534 35.6663 117.06 35.1432C116.64 34.673 116.21 34.2101 115.77 33.7546C115.366 33.3717 115.028 32.9358 114.769 32.4617C114.62 32.1476 114.648 31.5538 114.406 31.304C113.777 30.6694 112.334 31.5224 111.586 31.6103Z" fill="#EB6475"/>
<g opacity="0.1">
<path d="M93.3395 91.7192C93.323 91.1992 93.2399 90.6826 93.0917 90.1797L93.2016 90.2127C93.3096 90.7087 93.3558 91.214 93.3395 91.7192Z" fill="white"/>
<path d="M92.2227 98.9718C93.9676 99.0645 99.389 96.8213 100.474 95.6479C100.616 95.4891 100.704 95.2964 100.726 95.0934C100.757 95.2576 100.751 95.4259 100.708 95.5879C100.665 95.75 100.585 95.9024 100.474 96.0359C99.389 97.2093 93.9694 99.4525 92.2227 99.3598C90.3767 99.2624 84.1962 99.5546 83.9712 97.0145C83.9549 96.9449 83.9653 96.8723 84.0008 96.8088C84.4981 99.1556 90.4238 98.8807 92.2227 98.9718Z" fill="white"/>
</g>
<path d="M45.8557 100.219C46.9027 99.9049 48.4731 99.5468 49.7102 99.674C50.8863 99.2876 53.6537 98.2791 55.5434 96.7852C55.4883 95.3056 55.5297 93.8243 55.6673 92.3491C56.6339 82.4527 54.4598 75.9352 54.4598 75.9352C54.4598 75.9352 52.7533 70.9603 52.94 66.8321C52.8301 67.019 52.7655 67.1306 52.7655 67.1306C52.6154 63.5694 51.2684 59.8842 50.2598 57.5892C50.2211 57.579 50.1832 57.5664 50.1464 57.5515L49 55.1449C48.9102 55.0047 48.8388 54.8555 48.7872 54.7004L48.6127 54.3186L48.6668 54.2982C48.6493 54.2354 48.6301 54.1694 48.6127 54.1019C47.892 51.3576 47.3424 44.8495 47.3424 44.8495C45.4108 38.0006 49.9981 33.7624 49.9981 33.7624L57.7821 27.7256C57.7434 27.8041 57.7175 27.8871 57.7053 27.9722L57.7699 27.922C57.8798 27.6392 58.0002 27.2936 58.1188 26.9103C57.841 26.7334 57.5806 26.5353 57.3406 26.3181C56.4554 25.5652 55.8466 24.587 55.5957 23.5141C55.4073 22.68 55.4439 21.8208 55.4823 20.9709L55.6114 18.0617C55.6172 17.4921 55.6814 16.9241 55.8034 16.3652C56.3914 14.0497 59.0192 12.438 61.6557 12.3359C62.495 12.3045 63.3326 12.4003 64.1684 12.4569C64.8474 12.507 65.5291 12.5201 66.2099 12.4962C66.2874 12.5001 66.3643 12.4819 66.4298 12.4443C66.4896 12.3911 66.5241 12.319 66.5257 12.2432C66.5391 12.1083 66.5218 11.9722 66.475 11.8434C66.4282 11.7146 66.3529 11.5957 66.2535 11.4939C66.1516 11.4132 66.033 11.3513 65.9045 11.3117L66.093 11.3526C66.0003 11.2872 65.8958 11.2368 65.7841 11.2033C66.4577 11.3463 67.1469 11.4955 67.7262 11.8317C67.892 11.9298 68.0443 12.0453 68.1799 12.1757C68.5386 12.4591 68.7716 12.8496 68.836 13.2753C69.1378 13.0098 69.4275 12.7176 69.5339 12.3532C69.5741 12.2067 69.5741 12.0536 69.5339 11.9071C69.5793 11.9584 69.6235 12.0108 69.6665 12.0642C69.6665 12.0485 69.6665 12.0328 69.6543 12.017C70.1466 12.5681 70.4932 13.2127 70.6681 13.9021C70.734 13.826 70.7826 13.739 70.8111 13.646C70.8395 13.553 70.8473 13.4558 70.8339 13.3601C70.8722 13.4669 70.9089 13.5753 70.942 13.6853C70.9577 13.6139 70.9618 13.5409 70.9543 13.4685C71.2564 14.3007 71.3929 15.1745 71.3573 16.0494C71.3573 16.9228 70.9281 18.2816 69.8881 18.5879C69.8358 18.6036 69.7799 18.6162 69.7241 18.6272C70.308 19.4436 70.6577 20.3776 70.7419 21.3456C70.8261 22.3135 70.6421 23.2852 70.2065 24.1734C69.7708 25.0616 69.0972 25.8386 68.2459 26.4347C67.3945 27.0308 66.3922 27.4274 65.3287 27.5889C65.3124 27.6937 65.2962 27.8052 65.2799 27.9235H65.238C65.2101 28.1592 65.1874 28.4074 65.1699 28.6666C65.4316 28.8978 65.718 29.1051 66.0249 29.2855C66.8966 29.7496 67.869 30.0394 68.8761 30.1353C70.0784 30.2183 71.2473 30.531 72.3048 31.0527C73.5472 31.681 74.9221 32.5906 75.3496 33.698C76.0685 35.5469 80.019 38.4106 82.6782 38.7672L83.6204 38.7185L83.6885 38.6996V38.7153L83.9188 38.7028H83.9328H83.9938V38.7153L84.2329 38.7028C84.2329 38.7028 84.2573 38.8017 84.2887 38.9777C85.6236 38.5661 88.4555 37.4194 92.1407 34.4096C96.2482 31.0558 101.792 31.7156 103.929 32.1381C104.002 32.1526 104.068 32.1867 104.119 32.2358C104.169 32.285 104.202 32.3469 104.213 32.4133C104.223 32.4796 104.211 32.5473 104.178 32.6074C104.145 32.6674 104.092 32.7169 104.027 32.7492C103.165 33.1765 101.825 33.797 101.197 33.8661C101.197 33.8661 102.491 35.0725 101.116 35.7166C100.952 35.7895 100.768 35.8198 100.585 35.804C100.402 35.7882 100.228 35.7269 100.082 35.627C99.4204 35.1919 97.5813 36.1784 94.9186 36.6921C94.9186 36.6921 87.4016 43.6949 83.6728 44.7788C83.5868 44.932 83.4919 45.0809 83.3884 45.225L83.158 45.2077L83.1458 45.225H83.1144L83.0865 45.4449C83.0865 45.4449 77.2847 45.17 75.409 43.274C75.2748 43.1662 75.1516 43.0479 75.0408 42.9205L77.0579 65.7733H77.0387L77.0579 65.9901H75.5747C75.4455 68.8034 75.5786 71.6214 75.9726 74.4146V89.3063C75.9726 89.3063 76.0493 90.618 73.0254 92.5266C69.8538 94.5139 66.7974 96.6462 63.8683 98.9153L63.5018 99.2012C64.0584 103.757 65.2223 112.252 66.1925 112.569L65.594 112.663C66.6252 113.834 69.5304 117.045 70.4186 117.134C71.5056 117.242 72.2298 118.765 70.4186 119.091C68.747 119.393 64.4022 119.786 59.6613 118.136C59.3186 118.016 59.0306 117.796 58.8433 117.512C58.656 117.227 58.5803 116.894 58.6283 116.565L58.9773 114.165C58.9108 114.199 58.8572 114.25 58.8238 114.311C58.583 114.963 58.8238 113.441 58.8238 113.441C57.8308 110.567 57.0509 107.636 56.4891 104.669L52.8964 107.454C52.8964 107.454 52.8231 107.374 52.6992 107.23C51.8268 109.027 50.2564 112.698 50.6053 115.39C51.0887 119.087 46.4996 115.826 46.9829 113.651C47.3738 111.892 45.6306 104.44 44.9501 101.66C44.8774 101.361 44.9296 101.049 45.0967 100.783C45.2638 100.517 45.5341 100.317 45.8557 100.219Z" fill="url(#paint1_linear_4_2)"/>
<path d="M83.3482 39.9076C83.3482 39.9076 86.7682 39.3767 91.8371 35.2374C95.8504 31.9622 101.26 32.6078 103.353 33.0194C103.428 33.0294 103.496 33.0606 103.549 33.1085C103.602 33.1563 103.636 33.2182 103.647 33.285C103.658 33.3518 103.644 33.4199 103.609 33.4793C103.573 33.5387 103.517 33.5862 103.449 33.6147C102.607 34.031 101.298 34.6374 100.685 34.7065C100.685 34.7065 101.949 35.8846 100.607 36.5146C100.446 36.5857 100.266 36.6151 100.088 36.5995C99.9095 36.584 99.7394 36.5241 99.5967 36.4266C98.951 36.0025 97.1538 36.9654 94.5557 37.4665C94.5557 37.4665 84.4161 46.9136 82.0587 45.3208L83.3482 39.9076Z" fill="#FEC3BE"/>
<path d="M65.8976 27.0706C65.8976 27.0706 64.9536 30.6835 65.8976 33.2268L61.6523 33.7577L57.8815 32.0533V29.8306C57.8815 29.8306 59.6509 26.4344 59.178 22.5072L65.8976 27.0706Z" fill="#FEC3BE"/>
<path d="M53.8718 105.299C53.8718 105.299 50.8025 110.712 51.2789 114.321C51.7552 117.929 47.2656 114.745 47.742 112.623C48.1241 110.906 46.4211 103.628 45.7581 100.913C45.6851 100.62 45.7362 100.313 45.9014 100.051C46.0665 99.7897 46.334 99.5931 46.6514 99.4996C48.07 99.0802 50.4413 98.5571 51.6348 99.352C53.4007 100.522 53.8718 105.299 53.8718 105.299Z" fill="#5A5773"/>
<path d="M65.5451 111.242C65.5451 111.242 69.5583 115.912 70.6157 116.019C71.6731 116.126 72.3851 117.612 70.6157 117.929C68.9843 118.223 64.7407 118.608 60.1115 116.996C59.7764 116.879 59.4949 116.663 59.312 116.385C59.1291 116.106 59.0554 115.78 59.1029 115.46L59.7677 110.923L65.5451 111.242Z" fill="#5A5773"/>
<path d="M72.1478 61.6734L75.9865 62.1352C75.9865 62.1352 75.0897 67.9348 76.0319 74.3047V88.8461C76.0319 88.8461 76.1069 90.1263 73.1546 91.9878C70.0579 93.9282 67.0737 96.0102 64.2138 98.2257L53.5141 106.57C53.5141 106.57 49.2688 101.9 49.8585 99.1399C49.8585 99.1399 56.9323 97.1229 57.8763 93.832C58.4172 91.947 61.1602 90.3761 63.4059 89.3786C66.2989 88.0921 67.8763 85.1687 67.0841 82.3537C66.9532 81.8762 66.7507 81.417 66.4821 80.9887C64.5959 78.0166 61.8843 71.3295 61.8843 71.3295L67.0719 62.4133L72.1478 61.6734Z" fill="#605D82"/>
<path opacity="0.05" d="M72.1652 61.6734L76.004 62.1352C76.004 62.1352 75.1071 67.9348 76.0493 74.3047V88.8461C76.0493 88.8461 76.1244 90.1263 73.172 91.9878C70.0776 93.9294 67.0957 96.0124 64.2382 98.2288L53.5385 106.573C53.5385 106.573 49.2932 101.903 49.883 99.1431C49.883 99.1431 56.9567 97.1261 57.9007 93.8351C58.4416 91.9501 61.1846 90.3792 63.4303 89.3817C66.3233 88.0952 67.9007 85.1718 67.1085 82.3569C66.9776 81.8793 66.7751 81.4201 66.5065 80.9918C64.6203 78.0197 61.9087 71.3326 61.9087 71.3326L67.0963 62.4164L72.1652 61.6734Z" fill="black"/>
<path d="M66.4873 111.561C66.4873 111.561 59.527 112.623 59.2949 113.267C59.0628 113.911 59.2949 112.417 59.2949 112.417C59.2949 112.417 55.2816 101.484 56.2291 91.8244C57.1766 82.1652 55.0496 75.8017 55.0496 75.8017C55.0496 75.8017 52.5736 68.5836 53.9887 64.4444C55.4038 60.3052 70.2598 62.1085 70.2598 62.1085C70.2598 62.1085 65.0722 73.0307 65.1909 78.2365C65.1909 78.2365 64.6011 93.9451 63.5402 95.75C63.5402 95.7453 65.1909 111.137 66.4873 111.561Z" fill="#605D82"/>
<path d="M65.662 29.8306C65.662 29.8306 64.9553 33.7577 57.8798 32.0596L62.591 64.3266C62.591 64.3266 76.2675 64.7507 76.1506 63.2647L73.3256 43.7358L65.662 29.8306Z" fill="white"/>
<path opacity="0.1" d="M65.4858 29.6185C65.4858 29.6185 66.8259 30.9129 68.8918 31.0747C70.0655 31.1563 71.2064 31.462 72.2385 31.9716C73.4599 32.5827 74.7913 33.4718 75.2048 34.5557C76.0302 36.6779 81.2177 40.1809 83.5803 39.4379L82.755 45.8062C82.755 45.8062 76.0354 45.492 74.8558 43.153L76.8607 65.8676H75.0949C75.0949 65.8676 74.1509 59.7114 73.4442 58.4374C72.7376 57.1635 71.3224 50.159 71.2038 48.4594C71.0851 46.7597 69.3176 36.9921 67.7838 35.2971L65.484 30.2547L65.4858 29.6185Z" fill="black"/>
<path opacity="0.1" d="M65.4858 29.9374C65.4858 29.9374 67.0562 31.1265 69.1274 31.2867C70.301 31.3683 71.4419 31.6741 72.4741 32.1837C73.6955 32.7948 75.0269 33.6839 75.4404 34.7678C76.2657 36.89 81.4533 40.393 83.8159 39.65L82.9905 46.0182C82.9905 46.0182 76.271 45.7041 75.0914 43.3651L77.098 66.0781H75.3305C75.3305 66.0781 74.3865 59.9219 73.6798 58.6479C72.9731 57.374 71.558 50.3695 71.4394 48.6698C71.3207 46.9702 69.5531 37.2026 68.0194 35.5076L65.484 30.572L65.4858 29.9374Z" fill="black"/>
<path d="M65.4858 29.7253C65.4858 29.7253 67.0562 30.9145 69.1274 31.0747C70.301 31.1563 71.4419 31.462 72.4741 31.9716C73.6955 32.5827 75.0269 33.4718 75.4404 34.5557C76.2657 36.6779 81.4533 40.1809 83.8159 39.4379L82.9905 45.8062C82.9905 45.8062 76.271 45.492 75.0914 43.153L77.0963 65.8676H75.3305C75.3305 65.8676 74.3865 59.7114 73.6798 58.4374C72.9731 57.1635 71.558 50.159 71.4394 48.4594C71.3207 46.7597 69.5531 36.9921 68.0194 35.2971L65.484 30.3615L65.4858 29.7253Z" fill="#67647E"/>
<path opacity="0.1" d="M59.4729 25.6379C59.6264 24.6326 59.3193 24.0043 59.178 22.8245L65.8976 27.3895C65.8976 27.3895 65.7371 28.0068 65.6149 28.9085C65.2797 28.9572 64.9407 28.9819 64.6011 28.9823C62.256 28.9823 60.5739 27.3408 59.4729 25.6379Z" fill="black"/>
<path d="M64.6011 28.665C68.1176 28.665 70.9682 26.0987 70.9682 22.9329C70.9682 19.7672 68.1176 17.2009 64.6011 17.2009C61.0847 17.2009 58.234 19.7672 58.234 22.9329C58.234 26.0987 61.0847 28.665 64.6011 28.665Z" fill="#FEC3BE"/>
<path opacity="0.1" d="M71.5493 17.314C71.5868 16.3464 71.4088 15.3818 71.0258 14.477C71.1292 14.6188 71.1724 14.7893 71.1478 14.9574C71.1231 15.1255 71.0321 15.2801 70.8914 15.3928C70.6877 14.4075 70.1275 13.5105 69.2984 12.8417C69.752 12.9077 69.9841 13.4151 69.8742 13.8173C69.7642 14.2194 69.4188 14.5288 69.0872 14.8147C69.1256 14.2068 68.6807 13.6413 68.1153 13.3067C67.55 12.9721 66.8764 12.8355 66.2186 12.6878C66.4473 12.7609 66.6427 12.9001 66.7743 13.0837C66.906 13.2672 66.9664 13.4848 66.9463 13.7026C66.9446 13.7766 66.9108 13.8471 66.852 13.8989C66.7883 13.9361 66.7132 13.9542 66.6374 13.9508C65.9729 13.9744 65.3075 13.9618 64.6447 13.9131C63.8302 13.8305 63.0111 13.7912 62.1914 13.7953C59.616 13.8927 57.051 15.4682 56.4769 17.7224C56.3581 18.2679 56.2956 18.8222 56.2902 19.3781L56.1646 22.2182C56.1279 23.0476 56.0913 23.888 56.2762 24.7017C56.4525 25.4611 56.8131 26.176 57.3323 26.7952C57.8514 27.4144 58.5163 27.9226 59.2792 28.2833C60.204 27.0769 60.286 25.5264 60.6071 24.0891C60.6569 23.756 60.7938 23.4384 61.0066 23.1623C61.2387 22.9015 61.647 22.7366 61.9925 22.8607C62.338 22.9848 62.4881 23.4607 62.2001 23.6728C62.4479 23.9446 62.9365 23.7419 63.2209 23.5C64.0303 22.8093 64.5876 21.9137 64.8192 20.9317C64.9344 20.4368 65.0496 19.8321 65.58 19.6608C65.7657 19.6149 65.9597 19.6031 66.1506 19.6263C67.2725 19.6954 69.0279 20.1132 70.1167 19.7928C71.1305 19.4865 71.5493 18.1654 71.5493 17.314Z" fill="black"/>
<path d="M71.4324 17.2072C71.4699 16.2395 71.2919 15.2749 70.9089 14.3702C71.0123 14.512 71.0556 14.6825 71.0309 14.8506C71.0062 15.0187 70.9153 15.1732 70.7746 15.286C70.5715 14.2996 70.0113 13.4014 69.1815 12.7318C69.6352 12.7978 69.8672 13.3051 69.7573 13.7073C69.6474 14.1094 69.3019 14.4189 68.9703 14.7048C69.0087 14.0969 68.5638 13.5314 67.9984 13.1968C67.4331 12.8622 66.7596 12.7255 66.1017 12.5778C66.3304 12.651 66.5258 12.7901 66.6575 12.9737C66.7891 13.1573 66.8495 13.3749 66.8294 13.5926C66.8277 13.6666 66.7939 13.7372 66.7351 13.789C66.6714 13.8261 66.5963 13.8443 66.5205 13.8408C65.8561 13.8644 65.1906 13.8518 64.5279 13.8031C63.7134 13.7205 62.8942 13.6812 62.0745 13.6853C59.4991 13.7827 56.9341 15.3583 56.36 17.6124C56.2413 18.158 56.1788 18.7122 56.1733 19.2681L56.0477 22.1082C56.011 22.9376 55.9744 23.7781 56.1594 24.5918C56.337 25.3494 56.6983 26.0625 57.2174 26.68C57.7365 27.2974 58.4006 27.8041 59.1623 28.1639C60.0871 26.9575 60.1691 25.407 60.4902 23.9697C60.54 23.6366 60.6769 23.319 60.8898 23.0429C61.1218 22.7821 61.5301 22.6172 61.8756 22.7413C62.2211 22.8654 62.3712 23.3414 62.0833 23.5534C62.331 23.8252 62.8196 23.6225 63.104 23.3806C63.9134 22.6899 64.4707 21.7943 64.7023 20.8123C64.8175 20.3175 64.9327 19.7127 65.4631 19.5415C65.6488 19.4955 65.8429 19.4837 66.0337 19.5069C67.1557 19.576 68.911 19.9939 69.9998 19.6734C71.0119 19.3875 71.4324 18.0601 71.4324 17.2072Z" fill="#916168"/>
<path opacity="0.1" d="M84.1142 39.4364C84.1142 39.4364 85.0582 43.3635 83.2889 45.8046L82.2874 45.7308L82.8335 39.5023L84.1142 39.4364Z" fill="black"/>
<path d="M83.8787 39.4364C83.8787 39.4364 84.8227 43.3635 83.0534 45.8046L82.0518 45.7308L82.5979 39.5023L83.8787 39.4364Z" fill="#FD6F8D"/>
<path opacity="0.1" d="M58.5289 28.7168L50.9247 34.6075C50.9247 34.6075 46.4403 38.7467 48.33 45.4339C48.33 45.4339 49.1553 55.1983 50.0993 55.624C50.0993 55.624 53.4007 61.5682 53.6362 67.1934C53.6362 67.1934 58.0578 59.182 60.0627 64.0627C62.0675 68.9433 66.7246 69.6345 66.7246 69.6345L64.13 40.7637C64.13 40.7637 57.5867 30.5202 58.5289 28.7168Z" fill="black"/>
<path d="M58.2933 28.7168L50.6891 34.6075C50.6891 34.6075 46.2082 38.7467 48.0944 45.4339C48.0944 45.4339 48.9198 55.1983 49.8638 55.624C49.8638 55.624 53.1651 61.5682 53.4007 67.1934C53.4007 67.1934 58.0578 58.7548 60.0627 63.637C62.0675 68.5192 66.4891 69.6345 66.4891 69.6345L63.8892 40.7637C63.8892 40.7637 57.3493 30.5202 58.2933 28.7168Z" fill="#67647E"/>
<path d="M54.8158 53.607C54.8158 53.607 52.9295 52.4399 49.8638 55.624L57.4087 67.9364L59.944 64.4805C59.944 64.4805 54.5802 54.9878 54.8158 53.607Z" fill="#FEC3BE"/>
<path opacity="0.1" d="M56.6427 54.2967C56.6427 54.2967 52.4707 58.516 50.8427 57.8389L49.3351 54.6737L54.9903 52.4917L56.6427 54.2967Z" fill="black"/>
<path d="M56.6427 54.0846C56.6427 54.0846 52.4707 58.3039 50.8427 57.6269L49.3351 54.4679L54.9903 52.2797L56.6427 54.0846Z" fill="#FD6F8D"/>
<path opacity="0.1" d="M59.6892 63.6872C59.6892 63.6872 57.7036 67.3521 56.6427 67.5657L58.1747 69.1585L60.4151 65.3366L59.6892 63.6872Z" fill="black"/>
<path d="M59.8079 63.7925C59.8079 63.7925 57.8222 67.4573 56.7613 67.6709L58.2933 69.2638L60.5338 65.4419L59.8079 63.7925Z" fill="#4D4981"/>
<path opacity="0.1" d="M56.0529 41.1344C56.0529 41.1344 55.8173 48.7767 56.7596 51.6419L56.0529 41.1344Z" fill="black"/>
<path opacity="0.1" d="M75.1542 42.6205C75.1542 42.6205 73.7391 42.1963 73.7391 41.1344L75.1542 42.6205Z" fill="black"/>
<path d="M103.658 34.7892L93.7687 33.3505L93.6546 33.9863L103.544 35.425L103.658 34.7892Z" fill="#40414D"/>
<path d="M106.903 35.5783C106.903 35.5783 105.878 36.2067 104.894 36.3198C104.714 36.3429 104.531 36.3429 104.351 36.3198C103.449 36.1894 102.982 35.792 102.896 35.3254C102.863 35.1105 102.902 34.8914 103.01 34.6971C103.254 34.2777 103.837 34.0342 104.739 34.1661C105.014 34.2133 105.277 34.3071 105.514 34.4426C106.043 34.7491 106.513 35.1329 106.903 35.5783Z" fill="#40414D"/>
<path d="M106.903 35.5783C106.903 35.5783 105.878 36.2067 104.894 36.3198C104.864 36.2221 104.871 36.1179 104.915 36.0244C105.01 35.8915 105.122 35.7682 105.247 35.6569C105.35 35.5281 105.377 35.3144 105.226 35.2359C105.19 35.2222 105.155 35.2054 105.123 35.1856C105.032 35.1118 105.123 34.9798 105.2 34.9013C105.346 34.7678 105.514 34.6091 105.512 34.43C106.043 34.7401 106.514 35.1283 106.903 35.5783Z" fill="#F8BDC5"/>
<defs>
<linearGradient id="paint0_linear_4_2" x1="112.191" y1="120.153" x2="112.191" y2="21.0322" gradientUnits="userSpaceOnUse">
<stop stop-color="#808080" stop-opacity="0.25"/>
<stop offset="0.54" stop-color="#808080" stop-opacity="0.12"/>
<stop offset="1" stop-color="#808080" stop-opacity="0.1"/>
</linearGradient>
<linearGradient id="paint1_linear_4_2" x1="74.5592" y1="119.36" x2="74.5592" y2="11.2033" gradientUnits="userSpaceOnUse">
<stop stop-color="#808080" stop-opacity="0.25"/>
<stop offset="0.54" stop-color="#808080" stop-opacity="0.12"/>
<stop offset="1" stop-color="#808080" stop-opacity="0.1"/>
</linearGradient>
</defs>
</svg>
