<svg width="111" height="107" viewBox="0 0 111 107" fill="none" xmlns="http://www.w3.org/2000/svg">
<path d="M104.942 83.047H26.8985C23.9633 83.047 21.5903 80.061 21.5903 76.3675V7.67947C21.5903 3.98601 23.9633 1.00002 26.8985 1.00002H104.942C107.877 1.00002 110.25 3.98601 110.25 7.67947V76.3571C110.258 80.0506 107.877 83.047 104.942 83.047Z" fill="white" stroke="#3FB1B5" stroke-width="0.731361" stroke-miterlimit="10" stroke-linecap="round"/>
<path d="M104.991 76.6588H27.7006C26.5513 76.6588 25.6252 75.4832 25.6252 74.0474V8.33493C25.6252 6.88876 26.5595 5.7235 27.7006 5.7235H104.991C106.141 5.7235 107.067 6.89916 107.067 8.33493V74.037C107.075 75.4832 106.141 76.6588 104.991 76.6588Z" fill="#66B0F0" stroke="#66B0F0" stroke-width="0.731361" stroke-miterlimit="10" stroke-linejoin="round"/>
<path d="M30.4703 11.8619H29.2466C28.8498 11.8619 28.519 11.4562 28.519 10.9464V9.40655C28.519 8.90715 28.8415 8.49099 29.2466 8.49099H30.4703C30.8672 8.49099 31.1979 8.89675 31.1979 9.40655V10.9464C31.1897 11.4562 30.8672 11.8619 30.4703 11.8619Z" stroke="white" stroke-width="0.731361" stroke-miterlimit="10" stroke-linecap="round"/>
<path d="M36.0349 11.8619H34.8112C34.4143 11.8619 34.0836 11.4562 34.0836 10.9464V9.40654C34.0836 8.90715 34.406 8.49098 34.8112 8.49098H36.0349C36.4317 8.49098 36.7624 8.89674 36.7624 9.40654V10.9464C36.7624 11.4562 36.4317 11.8619 36.0349 11.8619Z" stroke="white" stroke-width="0.731361" stroke-miterlimit="10" stroke-linecap="round"/>
<path d="M41.5993 11.8619H40.3756C39.9787 11.8619 39.648 11.4562 39.648 10.9464V9.40654C39.648 8.90715 39.9705 8.49098 40.3756 8.49098H41.5993C41.9962 8.49098 42.3269 8.89674 42.3269 9.40654V10.9464C42.3269 11.4562 42.0044 11.8619 41.5993 11.8619Z" stroke="white" stroke-width="0.731361" stroke-miterlimit="10" stroke-linecap="round"/>
<path d="M82.3945 106.467H52.0999L58.0448 83.047H76.4414L82.3945 106.467Z" fill="white" stroke="#3FB1B5" stroke-width="0.731361" stroke-miterlimit="10" stroke-linecap="round"/>
<path d="M54.4811 97.0926L58.0447 83.047H76.4414L54.4811 97.0926Z" fill="#3FB1B5"/>
<path d="M100.494 27.2705H85.7679C84.3871 27.2705 83.2709 25.8659 83.2709 24.1284V12.1637C83.2709 10.4262 84.3871 9.0216 85.7679 9.0216H100.494C101.874 9.0216 102.991 10.4262 102.991 12.1637V24.1284C102.991 25.8659 101.874 27.2705 100.494 27.2705Z" stroke="white" stroke-width="0.731361" stroke-miterlimit="10" stroke-linecap="round"/>
<path d="M87.4794 13.2873H98.7158" stroke="white" stroke-width="0.731361" stroke-miterlimit="10" stroke-linecap="round"/>
<path d="M87.4794 16.5126H98.7158" stroke="white" stroke-width="0.731361" stroke-miterlimit="10" stroke-linecap="round"/>
<path d="M87.4794 19.7379H98.7158" stroke="white" stroke-width="0.731361" stroke-miterlimit="10" stroke-linecap="round"/>
<path d="M87.4794 22.9631H98.7158" stroke="white" stroke-width="0.731361" stroke-miterlimit="10" stroke-linecap="round"/>
<path d="M104.562 76.6588H46.0311L42.5998 82.8493C38.722 89.8409 30.5283 89.9449 26.543 83.047L5.64105 46.8718C6.51748 48.2452 10.5275 46.7158 14.3474 43.5529C18.2252 40.338 20.7305 36.2908 19.945 34.7926L34.4391 58.0355L38.8791 48.1723C40.0945 45.5609 42.112 43.6882 44.4601 43.0015L59.5661 38.9751H72.5885L86.942 42.9599C89.439 43.6778 91.5557 45.7274 92.7546 48.5677L104.562 76.6588Z" fill="white" stroke="#3FB1B5" stroke-width="0.731361" stroke-miterlimit="10"/>
<path d="M88.4965 76.2323L84.3376 65.901" stroke="#3FB1B5" stroke-width="0.731361" stroke-miterlimit="10" stroke-linecap="round"/>
<path d="M45.7004 77.1999L49.8179 66.9726" stroke="#3FB1B5" stroke-width="0.731361" stroke-miterlimit="10" stroke-linecap="round"/>
<path d="M28.8002 49.0151L38.2342 64.1947" stroke="#3FB1B5" stroke-width="0.731361" stroke-miterlimit="10" stroke-linecap="round"/>
<path d="M67.702 43.9691L71.1746 49.2856L78.9467 40.9831" stroke="#3FB1B5" stroke-width="0.731361" stroke-miterlimit="10" stroke-linecap="round"/>
<path d="M65.0479 44.0731L61.6745 49.4937L53.1335 40.9831" stroke="#3FB1B5" stroke-width="0.731361" stroke-miterlimit="10" stroke-linecap="round"/>
<path d="M22.8223 39.4433C23.6078 40.9519 21.0943 45.0511 17.1917 48.3076C13.3553 51.5121 9.28731 53.0519 8.40262 51.6681" stroke="#3FB1B5" stroke-width="0.731361" stroke-miterlimit="10" stroke-linecap="round"/>
<path d="M20.2261 42.0755C20.7421 42.0755 21.1604 41.5492 21.1604 40.8999C21.1604 40.2506 20.7421 39.7242 20.2261 39.7242C19.7101 39.7242 19.2918 40.2506 19.2918 40.8999C19.2918 41.5492 19.7101 42.0755 20.2261 42.0755Z" stroke="#3FB1B5" stroke-width="0.731361" stroke-miterlimit="10" stroke-linecap="round"/>
<path d="M66.3625 49.4625C66.8785 49.4625 67.2968 48.9361 67.2968 48.2868C67.2968 47.6375 66.8785 47.1111 66.3625 47.1111C65.8465 47.1111 65.4282 47.6375 65.4282 48.2868C65.4282 48.9361 65.8465 49.4625 66.3625 49.4625Z" stroke="#3FB1B5" stroke-width="0.731361" stroke-miterlimit="10" stroke-linecap="round"/>
<path d="M66.3625 58.9302C66.8785 58.9302 67.2968 58.4038 67.2968 57.7545C67.2968 57.1052 66.8785 56.5789 66.3625 56.5789C65.8465 56.5789 65.4282 57.1052 65.4282 57.7545C65.4282 58.4038 65.8465 58.9302 66.3625 58.9302Z" stroke="#3FB1B5" stroke-width="0.731361" stroke-miterlimit="10" stroke-linecap="round"/>
<path d="M42.3021 83.3487L46.0311 76.6588V83.3487H42.3021Z" fill="#3FB1B5"/>
<path d="M14.2565 43.2408C10.4366 46.4036 6.42648 47.933 5.55006 46.5597C5.53352 46.5389 5.52525 46.5181 5.50872 46.4869C5.32682 46.1435 5.34335 45.6753 5.50872 45.1031C6.07922 43.22 8.43565 40.3068 11.4287 37.8306C13.81 35.8538 16.1581 34.4805 17.787 34.0539C18.7295 33.8146 19.4323 33.8875 19.7713 34.3452L19.854 34.4701C20.6312 35.9683 18.1342 40.0259 14.2565 43.2408Z" fill="#FE5244"/>
<path d="M14.2564 43.2408C12.0819 45.0407 9.84124 46.3204 8.15453 46.8198L0.605688 33.4193C-0.444371 31.5465 -0.0971095 28.9559 1.39943 27.6346L8.19587 21.621L4.3429 13.3705C3.78066 12.1741 4.10312 10.6238 5.06223 9.92676C5.37642 9.69787 5.71541 9.59383 6.05441 9.59383C6.70759 9.59383 7.35252 9.99959 7.73285 10.7487L19.7796 34.3245L19.8623 34.4909C20.6312 35.9683 18.1342 40.0259 14.2564 43.2408Z" fill="#E57281"/>
<path d="M8.17937 21.7146L12.3879 29.9235C12.7765 30.6934 12.6028 31.713 11.991 32.2124L11.0567 32.9823C10.4448 33.4921 9.61803 33.2736 9.22116 32.5037L5.24417 25.0127" stroke="#9A3B82" stroke-width="0.731361" stroke-miterlimit="10" stroke-linecap="round"/>
<path d="M9.20462 32.4829C9.60976 33.2632 9.42785 34.314 8.80774 34.8134L7.95611 35.4897C7.34427 35.9787 6.53399 35.7602 6.13712 35.0007" stroke="#9A3B82" stroke-width="0.731361" stroke-miterlimit="10" stroke-linecap="round"/>
<path d="M2.22625 27.6554L6.12056 34.9383C6.5257 35.7186 6.35207 36.7694 5.71542 37.2688L4.92168 37.8202C4.32637 38.2988 3.5409 38.1011 3.12749 37.3729L0.87027 33.3673" stroke="#9A3B82" stroke-width="0.731361" stroke-miterlimit="10" stroke-linecap="round"/>
<path d="M16.9684 28.8311L14.9923 24.9711C14.3391 23.6914 12.9749 23.3377 11.9744 24.1908L7.07138 28.3733C7.07138 28.3733 8.49351 31.5881 11.9496 29.0391L13.1072 31.3593C10.7425 33.2424 10.0645 37.2064 11.6023 40.1508L16.9684 28.8311Z" fill="#E57281"/>
<path d="M16.7121 28.9351L14.736 25.0752C14.0828 23.7955 12.7185 23.4417 11.7181 24.2949L7.07138 28.3733C7.07138 28.3733 8.49351 31.5882 11.9496 29.0392L13.1072 31.3593C10.7425 33.2424 10.0645 37.2064 11.6023 40.1508" stroke="#9A3B82" stroke-width="0.731361" stroke-miterlimit="10" stroke-linecap="round"/>
<path d="M14.2565 43.2408C12.0819 45.0407 9.84126 46.3204 8.15455 46.8198L6.27768 43.4905C7.32774 41.7634 9.20461 39.6826 11.4287 37.841C13.81 35.8643 16.1581 34.4909 17.787 34.0644C18.7295 33.8251 19.4323 33.8979 19.7713 34.3557L19.854 34.4805C19.8623 34.5013 19.8706 34.5117 19.8788 34.5325C19.8871 34.5429 19.8871 34.5533 19.8954 34.5741C19.9036 34.595 19.9119 34.6054 19.9202 34.6262C20.4824 36.218 18.0102 40.1195 14.2565 43.2408Z" fill="#9A3B82"/>
<path d="M72.5803 29.8195V38.9647C72.5803 41.6178 69.6534 43.761 66.0567 43.761C62.4518 43.761 59.5331 41.6178 59.5331 38.9647V29.8195H72.5803Z" fill="#E57281"/>
<path d="M61.443 42.3564C60.2606 41.4929 59.5247 40.286 59.5247 38.9647V29.8195H72.5802V32.3581C72.5802 34.9903 71.3069 37.3521 69.3722 38.3404L61.443 42.3564Z" fill="#9A3B82"/>
<path d="M76.2182 29.2785V29.4345C76.2182 31.0159 75.2012 32.2957 73.9445 32.2957H72.4479C71.9436 34.8551 70.108 36.759 67.9087 36.759H64.2046C62.0135 36.759 60.1697 34.8655 59.6736 32.2957H58.1771C56.9203 32.2957 55.9033 31.0159 55.9033 29.4345V29.2785C55.9033 27.697 56.9203 26.4173 58.1771 26.4173H59.533V24.1596C59.533 21.7459 60.9469 19.7483 62.7907 19.4153C63.1958 20.2685 64.4195 22.3077 66.9165 22.1932C68.0906 22.1412 69.182 21.8603 70.0832 21.5274C71.1664 21.132 72.2495 21.9643 72.5224 23.2649C72.5637 23.5562 72.5885 23.8475 72.5885 24.1492V26.4069H73.9445C75.193 26.4069 76.2182 27.697 76.2182 29.2785Z" fill="#E57281"/>
<path d="M73.6219 26.4069H72.5801V23.8995C72.5801 23.681 72.5553 23.4625 72.514 23.2649C72.2411 21.9643 71.158 21.132 70.0749 21.5274C69.1736 21.8603 68.0905 22.1412 66.9082 22.1932C64.4112 22.3077 63.1875 20.2685 62.7824 19.4153C60.9385 19.7483 59.5247 21.7459 59.5247 24.1596V26.4173H58.2266C58.2266 26.4173 56.7383 19.6442 57.8545 17.7299C58.9542 15.8467 60.2771 16.6686 60.2771 16.6686C60.2771 16.6686 59.4833 11.0296 63.9151 11.1337C68.3386 11.2377 74.0932 17.6987 74.5149 18.8847C75.1763 20.7055 73.6219 26.4069 73.6219 26.4069Z" fill="#9A3B82"/>
<path d="M73.0846 29.8091C73.0846 28.6958 73.8039 27.8011 74.6803 27.8011" stroke="#9A3B82" stroke-width="0.609467" stroke-miterlimit="10" stroke-linecap="round"/>
<path d="M59.0452 29.8091C59.0452 28.6958 58.3259 27.8011 57.4494 27.8011" stroke="#9A3B82" stroke-width="0.609467" stroke-miterlimit="10" stroke-linecap="round"/>
<path d="M70.4966 24.1596C70.4966 24.1596 69.3226 23.0776 67.826 23.8579" stroke="#9A3B82" stroke-width="0.609467" stroke-miterlimit="10" stroke-linecap="round"/>
<path d="M61.5339 24.1596C61.5339 24.1596 62.708 23.0776 64.2046 23.8579" stroke="#9A3B82" stroke-width="0.609467" stroke-miterlimit="10" stroke-linecap="round"/>
<path d="M68.1154 31.8379C68.1154 31.8379 67.4788 33.5649 65.5275 32.6598" stroke="#9A3B82" stroke-width="0.609467" stroke-miterlimit="10" stroke-linecap="round"/>
<path d="M65.4365 30.9431C65.9409 30.9855 66.7098 30.9431 66.7098 30.9431" stroke="#9A3B82" stroke-width="0.609467" stroke-miterlimit="10" stroke-linecap="round"/>
<path d="M69.1655 28.4982C69.3938 28.4982 69.5789 28.1069 69.5789 27.6242C69.5789 27.1415 69.3938 26.7503 69.1655 26.7503C68.9372 26.7503 68.7521 27.1415 68.7521 27.6242C68.7521 28.1069 68.9372 28.4982 69.1655 28.4982Z" fill="#9A3B82"/>
<path d="M63.2372 28.4982C63.4656 28.4982 63.6506 28.1069 63.6506 27.6242C63.6506 27.1415 63.4656 26.7503 63.2372 26.7503C63.0089 26.7503 62.8238 27.1415 62.8238 27.6242C62.8238 28.1069 63.0089 28.4982 63.2372 28.4982Z" fill="#9A3B82"/>
<path d="M64.2211 30.5686H61.6166C61.1122 30.5686 60.7071 30.0588 60.7071 29.4241V26.1468C60.7071 25.5122 61.1122 25.0024 61.6166 25.0024H64.2211C64.7254 25.0024 65.1306 25.5122 65.1306 26.1468V29.4241C65.1388 30.0484 64.7254 30.5686 64.2211 30.5686Z" stroke="white" stroke-width="0.609467" stroke-miterlimit="10"/>
<path d="M70.5959 30.5686H67.9914C67.487 30.5686 67.0819 30.0588 67.0819 29.4241V26.1468C67.0819 25.5122 67.487 25.0024 67.9914 25.0024H70.5959C71.1002 25.0024 71.5054 25.5122 71.5054 26.1468V29.4241C71.5054 30.0484 71.1002 30.5686 70.5959 30.5686Z" stroke="white" stroke-width="0.609467" stroke-miterlimit="10"/>
<path d="M65.1389 27.1664H67.0819" stroke="white" stroke-width="0.609467" stroke-miterlimit="10"/>
<path d="M71.2821 72.622H62.245C61.4264 72.622 60.7567 71.7897 60.7567 70.7493V64.7045C60.7567 63.6745 61.4181 62.8318 62.245 62.8318H71.2821C72.1006 62.8318 72.7703 63.6641 72.7703 64.7045V70.7493C72.7703 71.7793 72.1089 72.622 71.2821 72.622Z" stroke="#66B0F0" stroke-width="0.731361" stroke-miterlimit="10" stroke-linejoin="round"/>
<path d="M66.9909 70.1875H63.9316C63.4438 70.1875 63.0469 69.6881 63.0469 69.0742V66.3796C63.0469 65.7657 63.4438 65.2663 63.9316 65.2663H66.9909C67.4787 65.2663 67.8755 65.7657 67.8755 66.3796V69.0742C67.8755 69.6881 67.4787 70.1875 66.9909 70.1875Z" fill="#66B0F0"/>
<path d="M69.9674 70.1148L69.0249 69.3241C68.7685 69.1056 68.6115 68.731 68.6115 68.3253V67.1392C68.6115 66.7335 68.7685 66.3589 69.0249 66.1404L69.9674 65.3497C70.1907 65.1624 70.48 65.3705 70.48 65.7243V69.7507C70.4883 70.094 70.1907 70.3021 69.9674 70.1148Z" fill="#66B0F0"/>
</svg>

